# This file uses centimeters as units for non-parametric coordinates.

mtllib TR_WoodBlock.mtl
g default
v -199.414276 -49.414272 98.000198
v -198.000198 -50.000000 98.000198
v -198.000198 -49.414272 99.414268
v -198.000198 -48.000198 100.000000
v -199.414276 -48.000198 99.414268
v -200.000000 -48.000198 98.000198
v 199.414276 -49.414272 98.000198
v 200.000000 -48.000198 98.000198
v 199.414276 -48.000198 99.414268
v 198.000198 -48.000198 100.000000
v 198.000198 -49.414272 99.414268
v 198.000198 -50.000000 98.000198
v -199.414276 49.414272 98.000198
v -200.000000 48.000198 98.000198
v -199.414276 48.000198 99.414268
v -198.000198 48.000198 100.000000
v -198.000198 49.414272 99.414268
v -198.000198 50.000000 98.000198
v 199.414276 49.414272 98.000198
v 198.000198 50.000000 98.000198
v 198.000198 49.414272 99.414268
v 198.000198 48.000198 100.000000
v 199.414276 48.000198 99.414268
v 200.000000 48.000198 98.000198
v -199.414276 48.000198 -99.414268
v -200.000000 48.000198 -98.000198
v -199.414276 49.414272 -98.000198
v -198.000198 50.000000 -98.000198
v -198.000198 49.414272 -99.414268
v -198.000198 48.000198 -100.000000
v 199.414276 48.000198 -99.414268
v 198.000198 48.000198 -100.000000
v 198.000198 49.414272 -99.414268
v 198.000198 50.000000 -98.000198
v 199.414276 49.414272 -98.000198
v 200.000000 48.000198 -98.000198
v -199.414276 -49.414272 -98.000198
v -200.000000 -48.000198 -98.000198
v -199.414276 -48.000198 -99.414268
v -198.000198 -48.000198 -100.000000
v -198.000198 -49.414272 -99.414268
v -198.000198 -50.000000 -98.000198
v 199.414276 -49.414272 -98.000198
v 198.000198 -50.000000 -98.000198
v 198.000198 -49.414272 -99.414268
v 198.000198 -48.000198 -100.000000
v 199.414276 -48.000198 -99.414268
v 200.000000 -48.000198 -98.000198
v -199.154388 -49.154381 99.154381
v 199.154388 -49.154381 99.154381
v -199.154388 49.154381 99.154381
v 199.154388 49.154381 99.154381
v -199.154388 49.154381 -99.154381
v 199.154388 49.154381 -99.154381
v -199.154388 -49.154381 -99.154381
v 199.154388 -49.154381 -99.154381
vt 0.507373 1.011502
vt 0.514422 1.011502
vt 0.514422 1.988498
vt 0.507373 1.988498
vt 0.514422 1.004454
vt 0.508668 1.005749
vt 0.992951 1.011502
vt 0.992951 1.988498
vt 0.514422 1.995546
vt 0.508668 1.994251
vt 0.992951 1.004454
vt 1.000000 1.011502
vt 1.000000 1.988498
vt 0.992951 1.995546
vt 0.998705 1.005749
vt 0.998705 1.994251
vt 0.007049 1.988498
vt -0.000000 1.988498
vt -0.000000 1.011502
vt 0.007049 1.011502
vt 0.007049 1.995546
vt 0.001295 1.994251
vt 0.007049 1.004454
vt 0.001295 1.005749
vt 0.485578 1.011502
vt 0.485578 1.988498
vt 0.485578 1.995546
vt 0.485578 1.004454
vt 0.492627 1.988498
vt 0.492627 1.011502
vt 0.491332 1.994251
vt 0.491332 1.005749
vt 0.329850 0.664020
vt 0.329850 0.666383
vt 0.002363 0.666383
vt 0.002363 0.664020
vt 0.332500 0.664020
vt 0.332500 0.665948
vt -0.000000 0.664020
vt 0.000434 0.665948
vt 0.002363 0.002363
vt 0.329850 0.002363
vt 0.332500 0.002363
vt -0.000000 0.002363
vt 0.329850 0.000000
vt 0.002363 0.000000
vt 0.332500 0.000434
vt 0.000434 0.000434
vt 0.502398 0.666383
vt 0.502398 0.664020
vt 0.829885 0.664020
vt 0.829885 0.666383
vt 0.498975 0.664020
vt 0.498975 0.665948
vt 0.502398 0.002363
vt 0.829885 0.002363
vt 0.833560 0.664020
vt 0.833560 0.665948
vt 0.498975 0.002363
vt 0.502398 0.000000
vt 0.829885 0.000000
vt 0.833560 0.002363
vt 0.498975 0.000434
vt 0.833560 0.000434
vt 0.335149 0.664020
vt 0.335149 0.002363
vt 0.335149 0.666383
vt 0.335149 0.000000
vt 0.495552 0.002363
vt 0.495552 0.664020
vt 0.495552 0.666383
vt 0.495552 0.000000
vt 0.837235 0.666383
vt 0.837235 0.664020
vt 0.997637 0.664020
vt 0.997637 0.666383
vt 0.837235 0.002363
vt 0.997637 0.002363
vt 1.000000 0.664020
vt 0.999566 0.665948
vt 0.837235 0.000000
vt 0.997637 0.000000
vt 1.000000 0.002363
vt 0.999566 0.000434
vn -0.001470 -0.999995 0.002963
vn -0.382476 -0.923964 0.001836
vn -0.382476 -0.923964 -0.001835
vn -0.001470 -0.999995 -0.002963
vn -0.923966 -0.382472 0.001835
vn -0.999978 -0.005998 0.002952
vn -0.999978 -0.005998 -0.002952
vn -0.923966 -0.382472 -0.001835
vn -0.001466 -0.006005 0.999981
vn -0.000911 -0.382583 0.923921
vn 0.000911 -0.382583 0.923921
vn 0.001466 -0.006005 0.999981
vn -0.000911 -0.923922 0.382580
vn 0.001470 -0.999995 0.002963
vn 0.000911 -0.923922 0.382580
vn -0.924047 -0.003727 0.382262
vn -0.924047 0.003727 0.382262
vn -0.999978 0.005998 0.002952
vn -0.382266 -0.003727 0.924045
vn -0.001466 0.006005 0.999981
vn -0.382266 0.003727 0.924045
vn 0.999978 -0.005998 0.002952
vn 0.923966 -0.382472 0.001835
vn 0.923966 -0.382472 -0.001835
vn 0.999978 -0.005998 -0.002952
vn 0.382476 -0.923964 0.001835
vn 0.001470 -0.999995 -0.002963
vn 0.382476 -0.923964 -0.001836
vn 0.382266 -0.003727 0.924045
vn 0.382266 0.003727 0.924045
vn 0.001466 0.006005 0.999981
vn 0.924047 -0.003727 0.382262
vn 0.999978 0.005998 0.002952
vn 0.924047 0.003727 0.382262
vn -0.923966 0.382472 0.001835
vn -0.923966 0.382472 -0.001835
vn -0.999978 0.005998 -0.002952
vn -0.382476 0.923964 0.001835
vn -0.001470 0.999995 0.002963
vn -0.001470 0.999995 -0.002963
vn -0.382476 0.923964 -0.001836
vn -0.000911 0.923922 0.382580
vn 0.000911 0.923922 0.382580
vn 0.001470 0.999995 0.002963
vn -0.000911 0.382583 0.923921
vn 0.000911 0.382583 0.923921
vn 0.382476 0.923964 0.001836
vn 0.382476 0.923964 -0.001835
vn 0.001470 0.999995 -0.002963
vn 0.923966 0.382472 0.001835
vn 0.999978 0.005998 -0.002952
vn 0.923966 0.382472 -0.001835
vn -0.924047 0.003727 -0.382262
vn -0.924047 -0.003727 -0.382262
vn -0.382266 0.003727 -0.924045
vn -0.001466 0.006005 -0.999981
vn -0.001466 -0.006005 -0.999981
vn -0.382266 -0.003727 -0.924045
vn -0.000911 0.382583 -0.923921
vn 0.000911 0.382583 -0.923921
vn 0.001466 0.006005 -0.999981
vn -0.000911 0.923922 -0.382580
vn 0.000911 0.923922 -0.382580
vn 0.382266 0.003727 -0.924045
vn 0.382266 -0.003727 -0.924045
vn 0.001466 -0.006005 -0.999981
vn 0.924047 0.003727 -0.382262
vn 0.924047 -0.003727 -0.382262
vn -0.000911 -0.923922 -0.382580
vn 0.000911 -0.923922 -0.382580
vn -0.000911 -0.382583 -0.923921
vn 0.000911 -0.382583 -0.923921
vn -0.887920 -0.325265 0.325269
vn -0.325270 -0.887917 0.325274
vn -0.325273 -0.325271 0.887917
vn 0.325269 -0.887917 0.325273
vn 0.887921 -0.325264 0.325269
vn 0.325273 -0.325271 0.887917
vn -0.325269 0.887917 0.325273
vn -0.887921 0.325264 0.325269
vn -0.325273 0.325271 0.887917
vn 0.887920 0.325265 0.325269
vn 0.325270 0.887917 0.325274
vn 0.325273 0.325271 0.887917
vn -0.325273 0.325271 -0.887917
vn -0.887920 0.325265 -0.325269
vn -0.325270 0.887917 -0.325274
vn 0.887921 0.325264 -0.325269
vn 0.325273 0.325271 -0.887917
vn 0.325269 0.887917 -0.325273
vn -0.325269 -0.887917 -0.325273
vn -0.887921 -0.325264 -0.325269
vn -0.325273 -0.325271 -0.887917
vn 0.887920 -0.325265 -0.325269
vn 0.325270 -0.887917 -0.325274
vn 0.325273 -0.325271 -0.887917
s 1
g pCube1
usemtl initialShadingGroup
f 2/33/1 1/34/2 37/35/3 42/36/4
s 2
f 1/1/5 6/2/6 38/3/7 37/4/8
s 3
f 4/65/9 3/37/10 11/43/11 10/66/12
s 1
f 3/37/13 2/33/1 12/42/14 11/43/15
s 2
f 6/2/6 5/5/16 15/11/17 14/7/18
s 3
f 5/67/19 4/65/9 16/70/20 15/71/21
s 4
f 8/17/22 7/18/23 43/19/24 48/20/25
s 1
f 7/45/26 12/42/14 44/41/27 43/46/28
s 3
f 10/66/12 9/68/29 23/72/30 22/69/31
s 4
f 9/21/32 8/17/22 24/26/33 23/27/34
s 2
f 14/7/18 13/12/35 27/13/36 26/8/37
s 5
f 13/49/38 18/50/39 28/51/40 27/52/41
f 18/50/39 17/53/42 21/59/43 20/55/44
s 3
f 17/53/45 16/70/20 22/69/31 21/59/46
s 5
f 20/55/44 19/60/47 35/61/48 34/56/49
s 4
f 19/29/50 24/26/33 36/25/51 35/30/52
s 2
f 26/8/37 25/14/53 39/9/54 38/3/7
s 6
f 25/73/55 30/74/56 40/75/57 39/76/58
f 30/74/56 29/57/59 33/62/60 32/77/61
s 5
f 29/57/62 28/51/40 34/56/49 33/62/63
s 6
f 32/77/61 31/81/64 47/82/65 46/78/66
s 4
f 31/28/67 36/25/51 48/20/25 47/23/68
s 1
f 42/36/4 41/39/69 45/44/70 44/41/27
s 6
f 41/79/71 40/75/57 46/78/66 45/83/72
s 3
f 4/65/9 10/66/12 22/69/31 16/70/20
s 5
f 18/50/39 20/55/44 34/56/49 28/51/40
s 6
f 30/74/56 32/77/61 46/78/66 40/75/57
s 1
f 42/36/4 44/41/27 12/42/14 2/33/1
s 4
f 8/17/22 48/20/25 36/25/51 24/26/33
s 2
f 38/3/7 6/2/6 14/7/18 26/8/37
f 5/5/16 6/2/6 1/1/5 49/6/73
s 1
f 1/34/2 2/33/1 3/37/13 49/38/74
s 3
f 3/37/10 4/65/9 5/67/19 49/38/75
s 1
f 11/43/15 12/42/14 7/45/26 50/47/76
s 4
f 7/18/23 8/17/22 9/21/32 50/22/77
s 3
f 9/68/29 10/66/12 11/43/11 50/47/78
s 5
f 17/53/42 18/50/39 13/49/38 51/54/79
s 2
f 13/12/35 14/7/18 15/11/17 51/15/80
s 3
f 15/71/21 16/70/20 17/53/45 51/54/81
s 4
f 23/27/34 24/26/33 19/29/50 52/31/82
s 5
f 19/60/47 20/55/44 21/59/43 52/63/83
s 3
f 21/59/46 22/69/31 23/72/30 52/63/84
s 6
f 29/57/59 30/74/56 25/73/55 53/58/85
s 2
f 25/14/53 26/8/37 27/13/36 53/16/86
s 5
f 27/52/41 28/51/40 29/57/62 53/58/87
s 4
f 35/30/52 36/25/51 31/28/67 54/32/88
s 6
f 31/81/64 32/77/61 33/62/60 54/64/89
s 5
f 33/62/63 34/56/49 35/61/48 54/64/90
s 1
f 41/39/69 42/36/4 37/35/3 55/40/91
s 2
f 37/4/8 38/3/7 39/9/54 55/10/92
s 6
f 39/76/58 40/75/57 41/79/71 55/80/93
s 4
f 47/23/68 48/20/25 43/19/24 56/24/94
s 1
f 43/46/28 44/41/27 45/44/70 56/48/95
s 6
f 45/83/72 46/78/66 47/82/65 56/84/96
